# Blender v2.80 (sub 75) OBJ File: ''
# www.blender.org
mtllib building.mtl
o storage_v1
v 2.770847 0.000001 -6.300000
v 2.770847 0.000001 -6.500000
v 2.770847 1.500001 -6.300000
v 2.770847 1.500001 -6.500000
v 0.000000 0.000001 -6.300000
v 0.000000 1.500001 -6.300000
v 0.000000 0.000000 -0.500000
v 0.000000 1.500000 -0.500000
v -0.181347 0.000000 -0.500000
v -0.181347 1.500000 -0.500000
v -0.181347 0.000001 -6.300000
v -0.181347 1.500001 -6.300000
v -2.131145 0.000001 -6.300000
v -2.131145 1.500001 -6.300000
v -2.131145 0.000001 -6.500000
v -2.131145 1.500001 -6.500000
v -7.500000 0.000001 -6.291110
v -7.490999 0.000001 -6.291110
v -7.500000 1.500001 -6.291110
v -7.490999 1.500001 -6.291110
v -7.500000 0.000001 -6.500000
v -7.500000 1.500001 -6.500000
v -3.719772 0.000001 -6.500000
v -3.719772 1.500001 -6.500000
v -3.719772 0.000001 -6.291110
v -3.719772 1.500001 -6.291110
v -7.211875 0.000001 -6.291110
v -7.211875 1.500001 -6.291110
v -7.211875 -0.000000 2.621596
v -7.211875 1.500000 2.621596
v -6.161053 -0.000000 2.621596
v -6.161053 1.500000 2.621596
v -6.161053 -0.000001 6.816041
v -6.161053 1.499999 6.816041
v -3.711767 -0.000001 6.816041
v -3.711767 1.499999 6.816041
v -3.711767 -0.000001 7.100000
v -3.711767 1.499999 7.100000
v -6.429600 -0.000001 7.100000
v -6.429600 1.499999 7.100000
v -6.429600 -0.000000 2.877354
v -6.429600 1.500000 2.877354
v -7.490999 -0.000000 2.877354
v -7.490999 1.500000 2.877354
v 4.347833 0.000001 -6.300000
v 7.000000 0.000001 -6.300000
v 4.347833 1.500001 -6.300000
v 7.000000 1.500001 -6.300000
v 4.347833 0.000001 -6.500000
v 4.347833 1.500001 -6.500000
v 7.237204 0.000001 -6.500000
v 7.237204 1.500001 -6.500000
v 7.237204 -0.000000 2.900000
v 7.237204 1.500000 2.900000
v 6.200000 -0.000000 2.900000
v 6.200000 1.500000 2.900000
v 6.200000 -0.000001 7.100000
v 6.200000 1.499999 7.100000
v -2.131885 -0.000001 7.100000
v -2.131885 1.499999 7.100000
v -2.131885 -0.000001 6.816041
v -2.131885 1.499999 6.816041
v -0.181347 -0.000001 6.816041
v -0.181347 1.499999 6.816041
v -0.181347 -0.000000 1.321753
v -0.181347 1.500000 1.321753
v 0.013437 -0.000000 1.321753
v 0.013437 1.500000 1.321753
v 0.013437 -0.000001 6.816041
v 0.013437 1.499999 6.816041
v 5.923384 -0.000001 6.816041
v 5.923384 1.499999 6.816041
v 5.923384 -0.000000 2.654784
v 5.923384 1.500000 2.654784
v 7.000000 -0.000000 2.654784
v 7.000000 1.500000 2.654784
v -6.429600 -0.000000 2.877354
v -7.490999 -0.000000 2.900000
v -6.429600 -0.100000 2.877354
v -7.490999 -0.100000 2.900000
v -6.429600 -0.000001 7.100000
v -6.429600 -0.100001 7.100000
v 6.200000 -0.000001 7.100000
v 6.200000 -0.100001 7.100000
v 6.200000 -0.000000 2.900000
v 6.200000 -0.100000 2.900000
v 7.237204 -0.000000 2.900000
v 7.237204 -0.100000 2.900000
v 7.237204 0.000001 -6.500000
v 7.237204 -0.099999 -6.500000
v -7.500000 0.000001 -6.500000
v -7.500000 -0.099999 -6.500000
v -7.500000 0.000001 -6.291110
v -7.500000 -0.099999 -6.291110
v -7.490999 0.000001 -6.291110
v -7.490999 -0.099999 -6.291110
vt -0.000000 0.000000
vt 0.020000 0.000000
vt -0.000000 0.150000
vt 0.020000 0.150000
vt 0.000000 0.000000
vt 0.277085 0.000000
vt 0.000000 0.150000
vt 0.277085 0.150000
vt -0.000000 0.000000
vt 0.580000 0.000000
vt -0.000000 0.150000
vt 0.580000 0.150000
vt 0.000000 0.000000
vt 0.018135 0.000000
vt 0.000000 0.150000
vt 0.018135 0.150000
vt 0.000000 0.000000
vt 0.580000 0.000000
vt 0.000000 0.150000
vt 0.580000 0.150000
vt 0.000000 0.000000
vt 0.194980 0.000000
vt 0.000000 0.150000
vt 0.194980 0.150000
vt 0.000000 0.000000
vt 0.020000 0.000000
vt 0.000000 0.150000
vt 0.020000 0.150000
vt -0.000000 0.000000
vt 0.490199 0.000000
vt -0.000000 0.150000
vt 0.490199 0.150000
vt -0.280000 0.245100
vt -0.300000 0.245100
vt -0.280000 -0.031985
vt -0.300000 -0.245100
vt -0.280000 -0.050120
vt -0.280000 -0.245100
vt 0.300000 -0.050120
vt 0.300000 -0.031985
vt -0.245100 0.300000
vt 0.031985 0.280000
vt 0.245100 0.300000
vt 0.050120 0.280000
vt 0.245100 0.280000
vt -0.245100 0.280000
vt 0.031985 -0.300000
vt 0.050120 -0.300000
vt 0.000000 0.000000
vt 0.000900 0.000000
vt 0.000000 0.150000
vt 0.000900 0.150000
vt 0.000000 0.000000
vt 0.020889 0.000000
vt 0.000000 0.150000
vt 0.020889 0.150000
vt -0.000000 0.000000
vt 0.378023 0.000000
vt -0.000000 0.150000
vt 0.378023 0.150000
vt -0.000000 0.000000
vt 0.020889 0.000000
vt -0.000000 0.150000
vt 0.020889 0.150000
vt 0.000000 0.000000
vt 0.349210 0.000000
vt 0.000000 0.150000
vt 0.349210 0.150000
vt 0.000000 0.000000
vt 0.891271 0.000000
vt 0.000000 0.150000
vt 0.891271 0.150000
vt 0.000000 0.000000
vt 0.105082 0.000000
vt 0.000000 0.150000
vt 0.105082 0.150000
vt 0.000000 0.000000
vt 0.419445 0.000000
vt 0.000000 0.150000
vt 0.419445 0.150000
vt -0.000000 0.000000
vt 0.244929 0.000000
vt 0.000000 0.150000
vt 0.244929 0.150000
vt -0.000000 0.000000
vt 0.028396 0.000000
vt -0.000000 0.150000
vt 0.028396 0.150000
vt 0.000000 0.000000
vt 0.271783 0.000000
vt 0.000000 0.150000
vt 0.271783 0.150000
vt 0.000000 0.000000
vt 0.422265 0.000000
vt 0.000000 0.150000
vt 0.422265 0.150000
vt 0.000000 0.000000
vt 0.106140 0.000000
vt 0.000000 0.150000
vt 0.106140 0.150000
vt 0.000000 0.000000
vt 0.916846 0.000000
vt 0.000000 0.150000
vt 0.916846 0.150000
vt 0.257735 -0.188512
vt 0.232160 -0.160599
vt -0.659111 -0.188512
vt -0.659111 -0.160599
vt -0.680000 -0.189412
vt -0.680000 0.188611
vt -0.659111 0.188611
vt 0.257735 -0.082372
vt 0.232160 -0.055517
vt 0.651604 -0.055517
vt 0.680000 -0.082372
vt 0.680000 0.189412
vt 0.651604 0.189412
vt -0.659111 -0.189412
vt 0.082372 -0.257735
vt 0.188512 -0.257735
vt 0.160599 -0.232160
vt 0.188512 0.659111
vt 0.160599 0.659111
vt 0.189412 0.680000
vt -0.188611 0.680000
vt 0.189412 0.659111
vt -0.188611 0.659111
vt 0.055517 -0.232160
vt 0.055517 -0.651604
vt 0.082372 -0.680000
vt -0.189412 -0.680000
vt -0.189412 -0.651604
vt 0.000000 0.000000
vt 0.265217 0.000000
vt 0.000000 0.150000
vt 0.265217 0.150000
vt 0.000000 0.000000
vt 0.020000 0.000000
vt 0.000000 0.150000
vt 0.020000 0.150000
vt -0.000000 0.000000
vt 0.288937 0.000000
vt -0.000000 0.150000
vt 0.288937 0.150000
vt 0.000000 0.000000
vt 0.940000 0.000000
vt 0.000000 0.150000
vt 0.940000 0.150000
vt 0.000000 0.000000
vt 0.103720 0.000000
vt 0.000000 0.150000
vt 0.103720 0.150000
vt -0.000000 0.000000
vt 0.420000 0.000000
vt -0.000000 0.150000
vt 0.420000 0.150000
vt 0.000000 0.000000
vt 0.833188 0.000000
vt 0.000000 0.150000
vt 0.833188 0.150000
vt 0.000000 0.000000
vt 0.028396 0.000000
vt 0.000000 0.150000
vt 0.028396 0.150000
vt -0.000000 0.000000
vt 0.195054 0.000000
vt -0.000000 0.150000
vt 0.195054 0.150000
vt 0.000000 0.000000
vt 0.549429 0.000000
vt 0.000000 0.150000
vt 0.549429 0.150000
vt -0.000000 0.000000
vt 0.019478 0.000000
vt -0.000000 0.150000
vt 0.019478 0.150000
vt -0.000000 0.000000
vt 0.549429 0.000000
vt -0.000000 0.150000
vt 0.549429 0.150000
vt -0.000000 0.000000
vt 0.590995 0.000000
vt -0.000000 0.150000
vt 0.590995 0.150000
vt 0.000000 0.000000
vt 0.416126 0.000000
vt 0.000000 0.150000
vt 0.416126 0.150000
vt -0.000000 0.000000
vt 0.107662 0.000000
vt -0.000000 0.150000
vt 0.107662 0.150000
vt 0.000000 0.000000
vt 0.895478 0.000000
vt 0.000000 0.150000
vt 0.895478 0.150000
vt 0.235478 0.444734
vt -0.680000 0.468454
vt -0.660000 0.444734
vt -0.680000 0.179517
vt -0.660000 0.179517
vt 0.235478 0.337072
vt 0.260000 0.364734
vt 0.260000 0.468454
vt 0.651604 0.337072
vt 0.680000 0.364734
vt 0.651604 -0.253922
vt 0.680000 -0.468454
vt 0.651604 -0.273401
vt 0.651604 -0.468454
vt 0.102175 -0.253922
vt 0.102175 -0.273401
vt -0.444734 0.660000
vt -0.468454 0.680000
vt -0.444734 -0.235478
vt -0.468454 -0.260000
vt -0.364734 -0.260000
vt -0.179517 0.660000
vt -0.179517 0.680000
vt -0.364734 -0.680000
vt -0.337072 -0.651604
vt -0.337072 -0.235478
vt 0.253922 -0.651604
vt 0.468454 -0.680000
vt 0.273401 -0.651604
vt 0.468454 -0.651604
vt 0.273401 -0.102175
vt 0.253922 -0.102175
vt 0.000000 0.000000
vt 0.106164 0.000000
vt 0.000000 0.010000
vt 0.106164 0.010000
vt -0.000000 0.000000
vt 0.422265 0.000000
vt -0.000000 0.010000
vt 0.422265 0.010000
vt 0.000000 0.000000
vt 1.262960 0.000000
vt -0.000000 0.010000
vt 1.262960 0.010000
vt 0.000000 0.000000
vt 0.420000 0.000000
vt 0.000000 0.010000
vt 0.420000 0.010000
vt 0.000000 0.000000
vt 0.103720 0.000000
vt 0.000000 0.010000
vt 0.103720 0.010000
vt 0.000000 0.000000
vt 0.940000 0.000000
vt 0.000000 0.010000
vt 0.940000 0.010000
vt 0.000000 0.000000
vt 1.473720 0.000000
vt 0.000000 0.010000
vt 1.473720 0.010000
vt 0.000000 0.000000
vt 0.020889 0.000000
vt 0.000000 0.010000
vt 0.020889 0.010000
vt 0.000000 0.000000
vt 0.000900 0.000000
vt 0.000000 0.010000
vt 0.000900 0.010000
vt -0.000000 0.000000
vt 0.919111 0.000000
vt 0.000000 0.010000
vt 0.919111 0.010000
vt -0.735960 -0.260000
vt -0.629820 -0.257735
vt -0.735960 0.659111
vt 0.736860 0.680000
vt -0.736860 0.680000
vt 0.633140 -0.260000
vt -0.629820 -0.680000
vt 0.633140 -0.680000
vt 0.736860 -0.260000
vt -0.736860 0.659111
vt -0.260000 -0.735960
vt 0.659111 -0.735960
vt -0.257735 -0.629820
vt 0.680000 0.736860
vt -0.260000 0.633140
vt -0.260000 0.736860
vt 0.659111 -0.736860
vt 0.680000 -0.736860
vt -0.680000 0.633140
vt -0.680000 -0.629820
vn 1.0000 0.0000 0.0000
vn 0.0000 -0.0000 1.0000
vn -1.0000 0.0000 0.0000
vn 0.0000 0.0000 -1.0000
vn 0.0000 1.0000 0.0000
vn 0.0000 -1.0000 -0.0000
vn 0.0213 0.0000 0.9998
usemtl Steel_-_Satin
s 1
f 1/1/1 2/2/1 3/3/1
f 3/3/1 2/2/1 4/4/1
f 5/5/2 1/6/2 6/7/2
f 6/7/2 1/6/2 3/8/2
f 7/9/1 5/10/1 8/11/1
f 8/11/1 5/10/1 6/12/1
f 9/13/2 7/14/2 10/15/2
f 10/15/2 7/14/2 8/16/2
f 11/17/3 9/18/3 12/19/3
f 12/19/3 9/18/3 10/20/3
f 13/21/2 11/22/2 14/23/2
f 14/23/2 11/22/2 12/24/2
f 15/25/3 13/26/3 16/27/3
f 16/27/3 13/26/3 14/28/3
f 2/29/4 15/30/4 4/31/4
f 4/31/4 15/30/4 16/32/4
f 3/33/5 4/34/5 6/35/5
f 6/35/5 4/34/5 16/36/5
f 6/35/5 16/36/5 12/37/5
f 12/37/5 16/36/5 14/38/5
f 12/37/5 10/39/5 6/35/5
f 6/35/5 10/39/5 8/40/5
f 2/41/6 5/42/6 15/43/6
f 15/43/6 5/42/6 11/44/6
f 15/43/6 11/44/6 13/45/6
f 2/41/6 1/46/6 5/42/6
f 7/47/6 9/48/6 5/42/6
f 5/42/6 9/48/6 11/44/6
f 17/49/2 18/50/2 19/51/2
f 19/51/2 18/50/2 20/52/2
f 21/53/3 17/54/3 22/55/3
f 22/55/3 17/54/3 19/56/3
f 23/57/4 21/58/4 24/59/4
f 24/59/4 21/58/4 22/60/4
f 25/61/1 23/62/1 26/63/1
f 26/63/1 23/62/1 24/64/1
f 27/65/2 25/66/2 28/67/2
f 28/67/2 25/66/2 26/68/2
f 29/69/1 27/70/1 30/71/1
f 30/71/1 27/70/1 28/72/1
f 31/73/4 29/74/4 32/75/4
f 32/75/4 29/74/4 30/76/4
f 33/77/1 31/78/1 34/79/1
f 34/79/1 31/78/1 32/80/1
f 35/81/4 33/82/4 36/83/4
f 36/83/4 33/82/4 34/84/4
f 37/85/1 35/86/1 38/87/1
f 38/87/1 35/86/1 36/88/1
f 39/89/2 37/90/2 40/91/2
f 40/91/2 37/90/2 38/92/2
f 41/93/3 39/94/3 42/95/3
f 42/95/3 39/94/3 40/96/3
f 43/97/2 41/98/2 44/99/2
f 44/99/2 41/98/2 42/100/2
f 18/101/3 43/102/3 20/103/3
f 20/103/3 43/102/3 44/104/3
f 44/105/5 30/106/5 20/107/5
f 20/107/5 30/106/5 28/108/5
f 20/107/5 28/108/5 22/109/5
f 22/109/5 28/108/5 24/110/5
f 24/110/5 28/108/5 26/111/5
f 44/105/5 42/112/5 30/106/5
f 30/106/5 42/112/5 32/113/5
f 32/113/5 42/112/5 34/114/5
f 34/114/5 42/112/5 40/115/5
f 34/114/5 40/115/5 38/116/5
f 38/116/5 36/117/5 34/114/5
f 22/109/5 19/118/5 20/107/5
f 41/119/6 43/120/6 29/121/6
f 29/121/6 43/120/6 18/122/6
f 29/121/6 18/122/6 27/123/6
f 27/123/6 18/122/6 21/124/6
f 27/123/6 21/124/6 23/125/6
f 18/122/6 17/126/6 21/124/6
f 23/125/6 25/127/6 27/123/6
f 29/121/6 31/128/6 41/119/6
f 41/119/6 31/128/6 33/129/6
f 41/119/6 33/129/6 39/130/6
f 39/130/6 33/129/6 37/131/6
f 37/131/6 33/129/6 35/132/6
f 45/133/2 46/134/2 47/135/2
f 47/135/2 46/134/2 48/136/2
f 49/137/3 45/138/3 50/139/3
f 50/139/3 45/138/3 47/140/3
f 51/141/4 49/142/4 52/143/4
f 52/143/4 49/142/4 50/144/4
f 53/145/1 51/146/1 54/147/1
f 54/147/1 51/146/1 52/148/1
f 55/149/2 53/150/2 56/151/2
f 56/151/2 53/150/2 54/152/2
f 57/153/1 55/154/1 58/155/1
f 58/155/1 55/154/1 56/156/1
f 59/157/2 57/158/2 60/159/2
f 60/159/2 57/158/2 58/160/2
f 61/161/3 59/162/3 62/163/3
f 62/163/3 59/162/3 60/164/3
f 63/165/4 61/166/4 64/167/4
f 64/167/4 61/166/4 62/168/4
f 65/169/3 63/170/3 66/171/3
f 66/171/3 63/170/3 64/172/3
f 67/173/4 65/174/4 68/175/4
f 68/175/4 65/174/4 66/176/4
f 69/177/1 67/178/1 70/179/1
f 70/179/1 67/178/1 68/180/1
f 71/181/4 69/182/4 72/183/4
f 72/183/4 69/182/4 70/184/4
f 73/185/3 71/186/3 74/187/3
f 74/187/3 71/186/3 72/188/3
f 75/189/4 73/190/4 76/191/4
f 76/191/4 73/190/4 74/192/4
f 46/193/3 75/194/3 48/195/3
f 48/195/3 75/194/3 76/196/3
f 76/197/5 52/198/5 48/199/5
f 48/199/5 52/198/5 50/200/5
f 48/199/5 50/200/5 47/201/5
f 74/202/5 56/203/5 76/197/5
f 76/197/5 56/203/5 54/204/5
f 76/197/5 54/204/5 52/198/5
f 74/202/5 72/205/5 56/203/5
f 56/203/5 72/205/5 58/206/5
f 58/206/5 72/205/5 70/207/5
f 58/206/5 70/207/5 60/208/5
f 60/208/5 70/207/5 64/209/5
f 60/208/5 64/209/5 62/210/5
f 70/207/5 68/211/5 64/209/5
f 64/209/5 68/211/5 66/212/5
f 46/213/6 51/214/6 75/215/6
f 75/215/6 51/214/6 53/216/6
f 75/215/6 53/216/6 55/217/6
f 45/218/6 49/219/6 46/213/6
f 46/213/6 49/219/6 51/214/6
f 57/220/6 71/221/6 55/217/6
f 55/217/6 71/221/6 73/222/6
f 55/217/6 73/222/6 75/215/6
f 71/221/6 57/220/6 69/223/6
f 69/223/6 57/220/6 59/224/6
f 69/223/6 59/224/6 63/225/6
f 63/225/6 59/224/6 61/226/6
f 65/227/6 67/228/6 63/225/6
f 63/225/6 67/228/6 69/223/6
f 77/229/7 78/230/7 79/231/7
f 79/231/7 78/230/7 80/232/7
f 81/233/3 77/234/3 82/235/3
f 82/235/3 77/234/3 79/236/3
f 83/237/2 81/238/2 84/239/2
f 84/239/2 81/238/2 82/240/2
f 85/241/1 83/242/1 86/243/1
f 86/243/1 83/242/1 84/244/1
f 87/245/2 85/246/2 88/247/2
f 88/247/2 85/246/2 86/248/2
f 89/249/1 87/250/1 90/251/1
f 90/251/1 87/250/1 88/252/1
f 91/253/4 89/254/4 92/255/4
f 92/255/4 89/254/4 90/256/4
f 93/257/3 91/258/3 94/259/3
f 94/259/3 91/258/3 92/260/3
f 95/261/2 93/262/2 96/263/2
f 96/263/2 93/262/2 94/264/2
f 78/265/3 95/266/3 80/267/3
f 80/267/3 95/266/3 96/268/3
f 78/269/5 77/270/5 95/271/5
f 95/271/5 77/270/5 89/272/5
f 95/271/5 89/272/5 91/273/5
f 89/272/5 77/270/5 85/274/5
f 85/274/5 77/270/5 81/275/5
f 85/274/5 81/275/5 83/276/5
f 85/274/5 87/277/5 89/272/5
f 91/273/5 93/278/5 95/271/5
f 80/279/6 96/280/6 79/281/6
f 79/281/6 96/280/6 90/282/6
f 79/281/6 90/282/6 86/283/6
f 86/283/6 90/282/6 88/284/6
f 94/285/6 92/286/6 96/280/6
f 96/280/6 92/286/6 90/282/6
f 84/287/6 82/288/6 86/283/6
f 86/283/6 82/288/6 79/281/6
