# Blender v2.79 (sub 0) OBJ File: ''
# www.blender.org
mtllib shoppingOBJ.mtl
o Plane
v -7.084654 -0.234963 2.886357
v 8.284920 -0.234963 2.886357
v -7.084654 -0.234963 -0.533787
v 8.284920 -0.234963 -0.533787
vn 0.0000 1.0000 0.0000
usemtl Material.002
s off
f 1//1 2//1 4//1 3//1
o shopping
v 8.116377 -0.229437 2.668494
v 8.116377 0.229436 1.522459
v 8.116377 -0.229437 1.522459
v 7.410350 0.229436 1.522459
v 7.410350 -0.229437 1.522459
v 8.093433 -0.229437 1.545403
v 7.410350 -0.229437 1.545403
v 7.410350 0.229436 1.545403
v 8.093433 0.229436 1.545403
v 8.093433 0.229436 2.668494
v 8.093433 -0.229437 2.668494
v 8.116377 0.229436 2.668494
v 8.116377 0.229436 -0.576288
v 5.048236 0.229436 -0.576288
v 8.116377 -0.229437 -0.576288
v 5.048236 -0.229437 -0.576288
v 8.116377 -0.229437 0.153590
v 5.048236 0.229436 0.153590
v 5.048236 -0.229437 0.153590
v 8.116377 0.229436 0.153590
v 7.066195 0.229436 1.522459
v 5.666633 0.229436 1.522459
v 7.066195 -0.229437 1.522459
v 5.666633 -0.229437 1.522459
v 7.066195 -0.229437 1.545403
v 6.372660 -0.229437 1.545403
v 5.666633 0.229436 1.545403
v 5.666633 -0.229437 1.545403
v 6.349716 -0.229437 1.545403
v 7.066195 0.229436 1.545403
v 6.372660 -0.229437 2.668494
v 6.372660 0.229436 1.545403
v 6.349716 0.229436 1.545403
v 6.349716 0.229436 2.668494
v 6.349716 -0.229437 2.668494
v 6.372660 0.229436 2.668494
v 3.440625 0.229436 0.022464
v 1.835042 0.229436 0.022464
v 3.440625 -0.229437 0.022464
v 1.835042 -0.229437 0.022464
v 3.440625 -0.229437 0.837314
v 1.835042 -0.229437 0.837314
v 1.835042 0.229436 0.837314
v 3.440625 0.229436 0.837314
v 5.322478 0.229436 1.522459
v 3.922915 0.229436 1.522459
v 5.322478 -0.229437 1.522459
v 3.922915 -0.229437 1.522459
v 5.322478 -0.229437 1.545403
v 4.628942 -0.229437 1.545403
v 3.922915 0.229436 1.545403
v 3.922915 -0.229437 1.545403
v 4.605998 -0.229437 1.545403
v 5.322478 0.229436 1.545403
v 4.628942 -0.229437 2.668494
v 4.628942 0.229436 1.545403
v 4.605998 0.229436 1.545403
v 4.605998 0.229436 2.668494
v 4.605998 -0.229437 2.668494
v 4.628942 0.229436 2.668494
v 3.578760 0.229436 1.522459
v 2.179197 0.229436 1.522459
v 3.578760 -0.229437 1.522459
v 2.179197 -0.229437 1.522459
v 3.578760 -0.229437 1.545403
v 2.885224 -0.229437 1.545403
v 2.179197 0.229436 1.545403
v 2.179197 -0.229437 1.545403
v 2.862280 -0.229437 1.545403
v 3.578760 0.229436 1.545403
v 2.885224 -0.229437 2.668494
v 2.885224 0.229436 1.545403
v 2.862280 0.229436 1.545403
v 2.862280 0.229436 2.668494
v 2.862280 -0.229437 2.668494
v 2.885224 0.229436 2.668494
v 1.835042 0.229436 1.522459
v 1.118563 0.229436 1.522459
v 1.835042 -0.229437 1.522459
v 1.118563 -0.229437 1.522459
v 1.835042 -0.229437 1.544255
v 1.141506 -0.229437 1.544255
v 1.118563 0.229436 2.668494
v 1.118563 -0.229437 2.668494
v 1.141506 -0.229437 2.668494
v 1.835042 0.229436 1.544255
v 1.141506 0.229436 1.544255
v 1.141506 0.229436 2.668494
v 0.200817 -0.229437 2.668494
v 0.200817 0.229436 1.524243
v 0.200817 -0.229437 1.524243
v -0.505210 0.229436 1.524243
v -0.505210 -0.229437 1.524243
v 0.177873 -0.229437 1.547187
v -0.505210 -0.229437 1.547187
v -0.505210 0.229436 1.547187
v 0.177873 0.229436 1.547187
v 0.177873 0.229436 2.668494
v 0.177873 -0.229437 2.668494
v 0.200817 0.229436 2.668494
v -0.869190 0.229436 1.524243
v -2.248928 0.229436 1.524243
v -0.869190 -0.229437 1.524243
v -2.248928 -0.229437 1.524243
v -0.869190 -0.229437 1.547187
v -1.565845 -0.229437 1.547187
v -1.542901 -0.229437 1.547187
v -2.248928 0.229436 1.547187
v -2.248928 -0.229437 1.547187
v -0.869190 0.229436 1.547187
v -1.542901 0.229436 1.547187
v -1.542901 -0.229437 2.668494
v -1.565845 0.229436 1.547187
v -1.565845 0.229436 2.668494
v -1.565845 -0.229437 2.668494
v -1.542901 0.229436 2.668494
v -2.612907 0.229436 1.524243
v -3.992645 0.229436 1.524243
v -2.612907 -0.229437 1.524243
v -3.992645 -0.229437 1.524243
v -2.612907 -0.229437 1.547187
v -3.309562 -0.229437 1.547187
v -3.286619 -0.229437 1.547187
v -3.992645 0.229436 1.547187
v -3.992645 -0.229437 1.547187
v -2.612907 0.229436 1.547187
v -3.286619 0.229436 1.547187
v -3.286619 -0.229437 2.668494
v -3.309562 0.229436 1.547187
v -3.309562 0.229436 2.668494
v -3.309562 -0.229437 2.668494
v -3.286619 0.229436 2.668494
v -4.356625 0.229436 1.524243
v -5.736363 0.229436 1.524243
v -4.356625 -0.229437 1.524243
v -5.736363 -0.229437 1.524243
v -4.356625 -0.229437 1.547187
v -5.053280 -0.229437 1.547187
v -5.030336 -0.229437 1.547187
v -5.736363 0.229436 1.547187
v -5.736363 -0.229437 1.547187
v -4.356625 0.229436 1.547187
v -5.030336 0.229436 1.547187
v -5.030336 -0.229437 2.668494
v -5.053280 0.229436 1.547187
v -5.053280 0.229436 2.668494
v -5.053280 -0.229437 2.668494
v -5.030336 0.229436 2.668494
v -6.100343 0.229436 1.524243
v -6.796998 0.229436 1.524243
v -6.100343 -0.229437 1.524243
v -6.796998 -0.229437 1.524243
v -6.100343 -0.229437 1.547187
v -6.796998 0.229436 1.547187
v -6.796998 -0.229437 1.547187
v -6.100343 0.229436 1.547187
v 0.200817 0.229436 -0.576288
v -6.796998 0.229436 -0.576288
v 0.200817 -0.229437 -0.576288
v -6.796998 -0.229437 -0.576288
v 0.200817 -0.229437 0.234460
v -6.796998 0.229436 0.234460
v -6.796998 -0.229437 0.234460
v 0.200817 0.229436 0.234460
vn 1.0000 0.0000 0.0000
vn 0.0000 0.0000 -1.0000
vn -0.0000 -1.0000 0.0000
vn -1.0000 0.0000 0.0000
vn 0.0000 0.0000 1.0000
vn 0.0000 1.0000 0.0000
vn 0.0000 -1.0000 -0.0001
vn 0.0000 1.0000 0.0001
vn 0.0000 -1.0000 0.0001
usemtl Material.001
s off
f 5//2 7//2 6//2
f 6//3 7//3 8//3
f 8//3 7//3 9//3
f 10//4 7//4 5//4
f 11//4 7//4 10//4
f 9//4 7//4 11//4
f 8//5 9//5 12//5
f 12//5 9//5 11//5
f 13//5 10//5 14//5
f 14//5 10//5 15//5
f 11//6 10//6 13//6
f 15//4 10//4 5//4
f 12//6 11//6 13//6
f 16//2 5//2 6//2
f 15//6 5//6 16//6
f 14//6 15//6 16//6
f 13//7 6//7 8//7
f 14//7 6//7 13//7
f 16//7 6//7 14//7
f 13//7 8//7 12//7
f 17//3 19//3 18//3
f 18//3 19//3 20//3
f 21//2 19//2 17//2
f 20//4 19//4 21//4
f 18//5 20//5 22//5
f 22//5 20//5 23//5
f 23//4 20//4 21//4
f 23//6 21//6 24//6
f 24//2 21//2 17//2
f 22//6 23//6 24//6
f 22//7 17//7 18//7
f 24//7 17//7 22//7
f 25//3 27//3 26//3
f 26//3 27//3 28//3
f 29//2 27//2 25//2
f 30//4 27//4 29//4
f 28//4 27//4 30//4
f 26//5 28//5 31//5
f 31//5 28//5 32//5
f 32//4 28//4 33//4
f 33//8 28//8 30//8
f 34//2 29//2 25//2
f 30//6 29//6 34//6
f 35//2 30//2 36//2
f 36//6 30//6 34//6
f 33//4 30//4 35//4
f 37//5 33//5 38//5
f 38//5 33//5 39//5
f 32//6 33//6 37//6
f 39//4 33//4 35//4
f 31//6 32//6 37//6
f 40//2 35//2 36//2
f 39//6 35//6 40//6
f 38//6 39//6 40//6
f 36//7 25//7 26//7
f 34//7 25//7 36//7
f 37//7 26//7 31//7
f 36//7 26//7 37//7
f 38//7 36//7 37//7
f 40//7 36//7 38//7
f 41//3 43//3 42//3
f 42//3 43//3 44//3
f 45//2 43//2 41//2
f 46//4 43//4 45//4
f 44//4 43//4 46//4
f 42//5 44//5 47//5
f 47//5 44//5 46//5
f 48//2 45//2 41//2
f 46//6 45//6 48//6
f 47//6 46//6 48//6
f 48//7 41//7 42//7
f 48//7 42//7 47//7
f 49//3 51//3 50//3
f 50//3 51//3 52//3
f 53//2 51//2 49//2
f 54//4 51//4 53//4
f 52//4 51//4 54//4
f 50//5 52//5 55//5
f 55//5 52//5 56//5
f 56//4 52//4 57//4
f 57//4 52//4 54//4
f 58//2 53//2 49//2
f 54//6 53//6 58//6
f 59//2 54//2 60//2
f 60//6 54//6 58//6
f 57//4 54//4 59//4
f 61//5 57//5 62//5
f 62//5 57//5 63//5
f 56//6 57//6 61//6
f 63//4 57//4 59//4
f 55//6 56//6 61//6
f 64//2 59//2 60//2
f 63//6 59//6 64//6
f 62//6 63//6 64//6
f 60//7 49//7 50//7
f 58//7 49//7 60//7
f 61//7 50//7 55//7
f 60//9 50//9 61//9
f 62//7 60//7 61//7
f 64//7 60//7 62//7
f 65//3 67//3 66//3
f 66//3 67//3 68//3
f 69//2 67//2 65//2
f 70//4 67//4 69//4
f 68//4 67//4 70//4
f 66//5 68//5 71//5
f 71//5 68//5 72//5
f 72//4 68//4 73//4
f 73//4 68//4 70//4
f 74//2 69//2 65//2
f 70//6 69//6 74//6
f 75//2 70//2 76//2
f 76//6 70//6 74//6
f 73//4 70//4 75//4
f 77//5 73//5 78//5
f 78//5 73//5 79//5
f 72//6 73//6 77//6
f 79//4 73//4 75//4
f 71//6 72//6 77//6
f 80//2 75//2 76//2
f 79//6 75//6 80//6
f 78//6 79//6 80//6
f 76//7 65//7 66//7
f 74//7 65//7 76//7
f 77//7 66//7 71//7
f 76//7 66//7 77//7
f 78//7 76//7 77//7
f 80//7 76//7 78//7
f 81//3 83//3 82//3
f 82//3 83//3 84//3
f 85//2 83//2 81//2
f 86//4 83//4 85//4
f 84//4 83//4 86//4
f 82//5 84//5 87//5
f 87//5 84//5 88//5
f 89//4 84//4 86//4
f 88//4 84//4 89//4
f 90//2 85//2 81//2
f 86//6 85//6 90//6
f 89//2 86//2 91//2
f 91//6 86//6 90//6
f 92//2 89//2 91//2
f 88//6 89//6 92//6
f 87//6 88//6 92//6
f 90//7 81//7 82//7
f 91//7 82//7 87//7
f 90//7 82//7 91//7
f 92//7 91//7 87//7
f 93//2 95//2 94//2
f 94//3 95//3 96//3
f 96//3 95//3 97//3
f 98//4 95//4 93//4
f 99//4 95//4 98//4
f 97//4 95//4 99//4
f 96//5 97//5 100//5
f 100//5 97//5 99//5
f 101//5 98//5 102//5
f 102//5 98//5 103//5
f 99//6 98//6 101//6
f 103//4 98//4 93//4
f 100//6 99//6 101//6
f 104//2 93//2 94//2
f 103//6 93//6 104//6
f 102//6 103//6 104//6
f 101//7 94//7 96//7
f 102//7 94//7 101//7
f 104//7 94//7 102//7
f 101//7 96//7 100//7
f 105//3 107//3 106//3
f 106//3 107//3 108//3
f 109//2 107//2 105//2
f 108//4 107//4 110//4
f 111//4 107//4 109//4
f 110//10 107//10 111//10
f 106//5 108//5 112//5
f 112//5 108//5 113//5
f 113//4 108//4 110//4
f 114//2 109//2 105//2
f 111//6 109//6 114//6
f 115//6 111//6 114//6
f 116//2 111//2 115//2
f 110//4 111//4 116//4
f 117//5 110//5 118//5
f 118//5 110//5 119//5
f 113//6 110//6 117//6
f 119//4 110//4 116//4
f 112//6 113//6 117//6
f 120//2 116//2 115//2
f 119//6 116//6 120//6
f 118//6 119//6 120//6
f 114//7 105//7 115//7
f 115//7 105//7 117//7
f 117//7 105//7 106//7
f 117//7 106//7 112//7
f 120//7 115//7 118//7
f 118//7 115//7 117//7
f 121//3 123//3 122//3
f 122//3 123//3 124//3
f 125//2 123//2 121//2
f 124//4 123//4 126//4
f 127//4 123//4 125//4
f 126//10 123//10 127//10
f 122//5 124//5 128//5
f 128//5 124//5 129//5
f 129//4 124//4 126//4
f 130//2 125//2 121//2
f 127//6 125//6 130//6
f 131//6 127//6 130//6
f 132//2 127//2 131//2
f 126//4 127//4 132//4
f 133//5 126//5 134//5
f 134//5 126//5 135//5
f 129//6 126//6 133//6
f 135//4 126//4 132//4
f 128//6 129//6 133//6
f 136//2 132//2 131//2
f 135//6 132//6 136//6
f 134//6 135//6 136//6
f 130//7 121//7 131//7
f 131//7 121//7 133//7
f 133//7 121//7 122//7
f 133//7 122//7 128//7
f 136//7 131//7 134//7
f 134//7 131//7 133//7
f 137//3 139//3 138//3
f 138//3 139//3 140//3
f 141//2 139//2 137//2
f 140//4 139//4 142//4
f 143//4 139//4 141//4
f 142//4 139//4 143//4
f 138//5 140//5 144//5
f 144//5 140//5 145//5
f 145//4 140//4 142//4
f 146//2 141//2 137//2
f 143//6 141//6 146//6
f 147//6 143//6 146//6
f 148//2 143//2 147//2
f 142//4 143//4 148//4
f 149//5 142//5 150//5
f 150//5 142//5 151//5
f 145//6 142//6 149//6
f 151//4 142//4 148//4
f 144//6 145//6 149//6
f 152//2 148//2 147//2
f 151//6 148//6 152//6
f 150//6 151//6 152//6
f 146//7 137//7 147//7
f 147//7 137//7 149//7
f 149//7 137//7 138//7
f 149//7 138//7 144//7
f 152//7 147//7 150//7
f 150//7 147//7 149//7
f 153//3 155//3 154//3
f 154//3 155//3 156//3
f 157//2 155//2 153//2
f 156//4 155//4 157//4
f 154//5 156//5 158//5
f 158//5 156//5 159//5
f 159//4 156//4 157//4
f 159//6 157//6 160//6
f 160//2 157//2 153//2
f 158//6 159//6 160//6
f 158//7 153//7 154//7
f 160//7 153//7 158//7
f 161//3 163//3 162//3
f 162//3 163//3 164//3
f 165//2 163//2 161//2
f 164//4 163//4 165//4
f 162//5 164//5 166//5
f 166//5 164//5 167//5
f 167//4 164//4 165//4
f 167//6 165//6 168//6
f 168//2 165//2 161//2
f 166//6 167//6 168//6
f 166//7 161//7 162//7
f 168//7 161//7 166//7
