# Blender v2.79 (sub 0) OBJ File: 'casa2.blend'
# www.blender.org
mtllib subpath.mtl
o Navmesh_Navmesh.001
v -4.184576 0.220565 1.290138
v -4.192909 0.220565 -1.679367
v -1.581964 0.220565 -1.591249
v -1.530452 0.220565 -6.841489
v 1.008577 0.220565 -6.919904
v 1.161814 0.220565 -6.036977
v 0.824954 0.220565 0.444667
v 0.836695 0.220565 6.444667
v -1.685589 0.220565 6.444667
v -1.733696 0.220565 1.372768
v 1.154935 0.220565 -4.997459
v 3.861473 0.220565 -6.036977
v 3.854594 0.220565 -4.997459
v -1.556208 0.220565 -4.216369
v -0.378505 0.220565 -0.573291
v -0.352749 0.220565 -3.198411
v -0.184319 0.220565 -6.439233
v 1.158374 0.220565 -5.517219
v -0.260937 0.220565 -6.880697
v 1.085196 0.220565 -6.478441
v -0.454371 0.220565 0.908718
v -1.657830 0.220565 -0.109240
v -2.963302 0.220565 -0.153299
v -2.887436 0.220565 -1.635308
v -2.959136 0.220565 1.331453
v -4.188742 0.220565 -0.194614
v 0.830825 0.220565 3.444667
v -0.448500 0.220565 3.908718
v -0.424447 0.220565 6.444667
v -1.709642 0.220565 3.908718
v 0.989944 0.220565 -2.276396
v 3.858033 0.220565 -5.517219
v 2.511643 0.220565 -6.036977
v 2.504764 0.220565 -4.997459
v 2.508204 0.220565 -5.517219
v 0.402813 0.220565 -4.357815
vn 0.0000 1.0000 0.0000
usemtl None
s off
f 3//1 15//1 14//1
f 36//1 31//1 11//1 18//1
f 4//1 17//1 19//1
f 7//1 15//1 21//1
f 10//1 22//1 23//1
f 10//1 23//1 25//1
f 7//1 21//1 27//1
f 8//1 28//1 29//1
f 35//1 34//1 13//1 32//1
f 33//1 35//1 32//1 12//1
f 6//1 18//1 35//1 33//1
f 18//1 11//1 34//1 35//1
f 29//1 30//1 9//1
f 29//1 28//1 30//1
f 28//1 10//1 30//1
f 27//1 28//1 8//1
f 27//1 21//1 28//1
f 21//1 10//1 28//1
f 25//1 26//1 1//1
f 25//1 23//1 26//1
f 23//1 2//1 26//1
f 23//1 24//1 2//1
f 23//1 22//1 24//1
f 22//1 3//1 24//1
f 21//1 22//1 10//1
f 21//1 15//1 22//1
f 15//1 3//1 22//1
f 19//1 20//1 5//1
f 19//1 17//1 20//1
f 17//1 6//1 20//1
f 17//1 36//1 18//1 6//1
f 4//1 16//1 36//1 17//1
f 16//1 7//1 31//1 36//1
f 14//1 16//1 4//1
f 14//1 15//1 16//1
f 15//1 7//1 16//1
